<svg xmlns="http://www.w3.org/2000/svg" viewBox="0 0 1600 720" preserveAspectRatio="xMidYMid slice"><defs><linearGradient id="sky" x1="0" y1="0" x2="1" y2="1"><stop offset="0" stop-color="#0d3152"/><stop offset="0.45" stop-color="#7d97b0"/><stop offset="0.72" stop-color="#f0c58b"/><stop offset="1" stop-color="#f8d799"/></linearGradient><radialGradient id="sun" cx="82%" cy="54%" r="23%"><stop offset="0" stop-color="#fff8d8" stop-opacity="1"/><stop offset="0.22" stop-color="#ffd88b" stop-opacity=".82"/><stop offset="1" stop-color="#ffd88b" stop-opacity="0"/></radialGradient><linearGradient id="cloud" x1="0" y1="0" x2="0" y2="1"><stop offset="0" stop-color="#eef3f6" stop-opacity=".95"/><stop offset="1" stop-color="#8ca0b3" stop-opacity=".75"/></linearGradient><linearGradient id="plane" x1="0" y1="0" x2="1" y2="1"><stop offset="0" stop-color="#ffffff"/><stop offset="0.55" stop-color="#d7dde3"/><stop offset="1" stop-color="#8997a3"/></linearGradient></defs><rect width="1600" height="720" fill="url(#sky)"/><rect width="1600" height="720" fill="url(#sun)"/><g opacity=".92"><ellipse cx="250" cy="610" rx="320" ry="120" fill="url(#cloud)"/><ellipse cx="520" cy="640" rx="370" ry="120" fill="url(#cloud)"/><ellipse cx="930" cy="625" rx="400" ry="120" fill="url(#cloud)"/><ellipse cx="1330" cy="635" rx="360" ry="130" fill="url(#cloud)"/></g><g transform="translate(585 265) rotate(-10)"><path d="M0 180C110 125 245 86 430 48c85-18 177-35 281-47 30-3 51 2 77 12l55 21-129 17-70 16-76 27-134 68-190 86-134 41-113-5 103-49-107 10z" fill="url(#plane)" stroke="#6f7d89" stroke-width="3"/><path d="M112 192l176-82-65 89-168 79z" fill="#b7c0c8" stroke="#7b8995" stroke-width="2"/><path d="M228 153l179-68 93-21-73 61-212 116-74 18z" fill="#e4e8ec" stroke="#8a98a3" stroke-width="2"/><path d="M526 63l82-57 14 54-66 23z" fill="#153753"/><path d="M582 33l27-19 7 25z" fill="#c89950"/><path d="M655 25l52 10-34 7z" fill="#2b3e4e"/><g fill="#4a5966" opacity=".85"><circle cx="437" cy="96" r="4"/><circle cx="456" cy="91" r="4"/><circle cx="475" cy="86" r="4"/><circle cx="494" cy="82" r="4"/><circle cx="513" cy="78" r="4"/><circle cx="532" cy="73" r="4"/><circle cx="551" cy="69" r="4"/><circle cx="570" cy="65" r="4"/></g><path d="M665 18c18-8 31-8 48-4l28 9-49 5z" fill="#263c50"/></g></svg>